<?xml version="1.0"?>
<svg version="1.1" xmlns="http://www.w3.org/2000/svg" width="76" height="41" style=""><path fill="#106be0" d="M17.436,33.408l6.384-17.248l2.8-0.14l6.216,17.388l2.324,0.532l0,1.68l-8.12,0l0-1.68l2.604-0.532l-1.064-3.108l-7.28,0l-1.092,3.108l2.632,0.532l0,1.68l-7.7,0l0-1.68z M27.824,28.06l-2.828-8.428l-2.94,8.428l5.768,0z M55.0008,28.228l0,5.992s-2.968,1.68-7.14,1.68c-5.6,0-8.96-3.36-8.96-9.66c0-6.44,3.64-10.5,9.38-10.5c3.08,0,6.3,1.4,6.3,1.4l-0.14,4.62l-1.82,0l-0.84-3.08s-1.68-0.56-3.78-0.56c-3.78,0-5.88,2.8-5.88,7.98c0,5.04,2.52,7.42,6.16,7.42c1.96,0,3.92-0.7,3.92-0.7l0-4.592l-2.38-0.56l0-1.54l7.28-0.14l0,1.68z M61.9616,33.94c0-1.26,0.84-1.96,1.82-1.96c1.12,0,1.82,0.7,1.82,1.96s-0.84,1.96-1.82,1.96c-1.12,0-1.82-0.7-1.82-1.96z"/><path fill="#106be0" d=""/></svg>
